HIERARCHY
ROOT hip
{
	OFFSET 0.000000 0.000000 0.000000 
	CHANNELS 6 Xposition Yposition Zposition Xrotation Zrotation Yrotation
	JOINT abdomen
	{
		OFFSET 0.000000 3.402643 0.000000 
		CHANNELS 3 Xrotation Zrotation Yrotation
		JOINT chest
		{
			OFFSET 0.000000 8.438565 -0.680529 
			CHANNELS 3 Xrotation Zrotation Yrotation
			JOINT neck
			{
				OFFSET 0.000000 10.207942 -0.272212 
				CHANNELS 3 Xrotation Zrotation Yrotation
				JOINT head
				{
					OFFSET 0.000000 3.130431 0.000000 
					CHANNELS 3 Xrotation Zrotation Yrotation
					End Site
					{
						OFFSET 0.000000 3.130435 0.000000 
					}
				}
			}
			JOINT lCollar
			{
				OFFSET 3.470700 6.669187 -0.816635 
				CHANNELS 3 Yrotation Zrotation Xrotation
				JOINT lShldr
				{
					OFFSET 3.198488 0.000000 0.000000 
					CHANNELS 3 Zrotation Yrotation Xrotation
					JOINT lForeArm
					{
						OFFSET 10.139888 0.000000 0.000000 
						CHANNELS 3 Yrotation Zrotation Xrotation
						JOINT lHand
						{
							OFFSET 8.370511 0.000000 0.000000 
							CHANNELS 3 Zrotation Yrotation Xrotation
							End Site
							{
								OFFSET 4.083176 0.000000 0.000000 
							}
						}
					}
				}
			}
			JOINT rCollar
			{
				OFFSET -3.470700 6.669187 -0.816635 
				CHANNELS 3 Yrotation Zrotation Xrotation
				JOINT rShldr
				{
					OFFSET -3.198488 0.000000 0.000000 
					CHANNELS 3 Zrotation Yrotation Xrotation
					JOINT rForeArm
					{
						OFFSET -10.139888 0.000000 0.000000 
						CHANNELS 3 Yrotation Zrotation Xrotation
						JOINT rHand
						{
							OFFSET -8.370511 0.000000 0.000000 
							CHANNELS 3 Zrotation Yrotation Xrotation
							End Site
							{
								OFFSET -4.083176 0.000000 0.000000 
							}
						}
					}
				}
			}
		}
	}
	JOINT lThigh
	{
		OFFSET 5.308129 -1.633274 1.361059 
		CHANNELS 3 Xrotation Zrotation Yrotation
		JOINT lShin
		{
			OFFSET -2.041588 -20.007561 0.000000 
			CHANNELS 3 Xrotation Zrotation Yrotation
			JOINT lFoot
			{
				OFFSET 0.000000 -19.190928 -1.224953 
				CHANNELS 3 Xrotation Yrotation Zrotation
				End Site
				{
					OFFSET 0.000000 -2.449906 4.627600 
				}
			}
		}
	}
	JOINT rThigh
	{
		OFFSET -5.308129 -1.633274 1.361059 
		CHANNELS 3 Xrotation Zrotation Yrotation
		JOINT rShin
		{
			OFFSET 2.041588 -20.007561 0.000000 
			CHANNELS 3 Xrotation Zrotation Yrotation
			JOINT rFoot
			{
				OFFSET 0.000000 -19.190928 -1.224953 
				CHANNELS 3 Xrotation Yrotation Zrotation
				End Site
				{
					OFFSET 0.000000 -2.449906 4.627600 
				}
			}
		}
	}
}
MOTION
Frames: 15
Frame Time: 0.016667
-0.660691 52.821384 0.855715 -9.307208 -1.916703 -4.934427 28.992134 -1.193020 -0.178331 -0.875354 3.983484 -1.857970 -8.154660 -0.845892 0.088475 17.788754 -2.274638 5.502229 -5.329651 -8.954430 -0.472854 -57.354866 2.579373 -5.004435 -28.056280 -5.000000 31.961027 -9.154194 -6.025746 9.717360 4.199515 9.266695 -0.492092 60.387104 6.050464 5.762501 24.372135 5.000000 31.388903 14.686594 -9.333248 0.955189 16.043301 5.576075 2.974076 8.844230 -7.802250 -1.556971 -20.643530 8.312568 1.631108 16.176931 -4.071402 -2.537520 3.665845 4.123157 0.382397 -10.845613 -9.137879 4.292287 
-0.631861 52.804306 0.901232 -9.311431 -1.965235 -4.973800 28.973175 -1.149537 -0.127202 -0.905331 3.983469 -1.838415 -8.037443 -0.826581 0.085553 17.959707 -2.333038 5.482707 -5.446511 -8.915402 -0.470842 -57.419445 2.664827 -5.076527 -28.199604 -5.000000 31.952820 -9.194514 -6.063765 9.757105 4.267619 9.237428 -0.490575 60.366680 6.006702 5.718927 24.392962 5.000000 31.477623 14.779624 -9.158114 0.847048 16.062414 5.595825 3.097034 8.976558 -7.798118 -1.629777 -20.990768 8.186483 1.618654 16.213360 -4.109684 -2.266436 3.709276 4.175665 0.415304 -11.103228 -9.387720 4.357540 
-0.586011 52.780834 0.985574 -9.290191 -2.052456 -5.081504 28.924591 -1.044807 -0.073564 -0.923708 3.993261 -1.818930 -7.851839 -0.885976 0.084664 18.248257 -2.419965 5.620107 -5.464198 -8.877318 -0.459226 -57.505451 2.780538 -5.164405 -28.385769 -5.000000 32.020302 -9.202518 -6.147800 9.721227 4.374534 9.178897 -0.485983 60.379475 5.980272 5.734132 24.442623 5.000000 31.472654 14.783788 -9.077707 0.848742 16.139256 5.565860 3.178614 9.109568 -7.793824 -1.633097 -21.587263 8.199899 1.869392 16.243097 -4.168370 -2.168428 3.876318 4.235623 0.418840 -11.583765 -9.382779 4.422533 
-0.528813 52.753098 1.095793 -9.265904 -2.149199 -5.238373 28.875851 -0.905465 -0.028661 -0.932515 4.012817 -1.828742 -7.646749 -0.983994 0.089618 18.608677 -2.525877 5.845341 -5.434662 -8.848063 -0.457717 -57.610973 2.894221 -5.253623 -28.592089 -5.000000 32.136562 -9.197080 -6.250830 9.636710 4.500900 9.110609 -0.482453 60.424526 5.961549 5.792101 24.515482 5.000000 31.390982 14.743858 -9.075815 0.925259 16.245247 5.535984 3.219791 9.218989 -7.817157 -1.618003 -22.308239 8.269794 2.247169 16.256805 -4.238002 -2.212043 4.128885 4.293783 0.409639 -12.221159 -9.241284 4.515138 
-0.470041 52.725361 1.211584 -9.232623 -2.236191 -5.385132 28.808044 -0.774723 0.014035 -0.951763 4.032358 -1.838530 -7.422286 -1.070896 0.102765 18.987078 -2.651229 6.041322 -5.405048 -8.809052 -0.455704 -57.707279 3.013715 -5.351007 -28.790665 -5.000000 32.267059 -9.228481 -6.337842 9.555117 4.597974 9.042325 -0.478923 60.459290 5.957017 5.852817 24.600138 5.000000 31.323759 14.744848 -9.081463 0.983751 16.333420 5.496990 3.259243 9.337609 -7.828323 -1.631138 -22.917860 8.323831 2.539169 16.224401 -4.295517 -2.284968 4.442613 4.353978 0.444209 -12.867698 -9.112143 4.602795 
-0.404970 52.697628 1.349711 -9.161415 -2.323279 -5.492861 28.692350 -0.672119 0.028226 -0.946760 4.061562 -1.916505 -7.158388 -1.043390 0.088729 19.459618 -2.854753 6.120744 -5.355748 -8.750541 -0.452686 -57.814636 3.139281 -5.479311 -28.961733 -5.000000 32.449932 -9.376525 -6.345274 9.557394 4.626857 8.993560 -0.476402 60.463253 5.995252 5.920837 24.723042 5.000000 31.291269 14.900008 -9.151478 1.020801 16.421116 5.458683 3.298839 9.409733 -7.833845 -1.628935 -23.181116 8.363225 2.611042 16.069080 -4.363934 -2.403690 5.016501 4.379677 0.517903 -13.506454 -8.956692 4.661489 
-0.339898 52.669888 1.487833 -9.081069 -2.400609 -5.601003 28.576647 -0.560363 0.045797 -0.950884 4.090775 -1.985432 -6.904452 -1.024078 0.085807 19.933168 -3.048560 6.189997 -5.306529 -8.701778 -0.450170 -57.922333 3.272679 -5.602900 -29.122509 -5.000000 32.630825 -9.520810 -6.346446 9.537045 4.645895 8.935042 -0.473376 60.477543 6.019192 5.986091 24.846039 5.000000 31.255598 15.064798 -9.231360 1.053296 16.495230 5.428076 3.330712 9.494415 -7.838518 -1.658158 -23.426777 8.380204 2.621713 15.913644 -4.433107 -2.542234 5.593396 4.401783 0.591752 -14.158397 -8.818524 4.736043 
-0.266728 52.637009 1.644909 -9.064298 -2.429356 -5.698574 28.576723 -0.507075 -0.006168 -0.976459 4.139478 -2.053609 -6.552769 -0.937177 0.072659 20.296530 -3.235339 5.799942 -5.307777 -8.671618 -0.458273 -58.012028 3.414798 -5.755824 -29.242264 -5.000000 32.875618 -9.599902 -6.425724 9.531020 4.703999 8.876518 -0.470349 60.508675 5.902683 5.829475 25.124504 5.000000 31.059862 15.043796 -9.398700 1.260536 16.680706 5.340487 3.347368 9.550628 -7.878359 -1.665730 -23.693476 8.397633 2.715309 15.623671 -4.550707 -2.545694 6.591343 4.422747 0.678470 -14.808511 -8.852942 4.696272 
-0.191537 52.602871 1.806732 -9.067946 -2.448371 -5.796558 28.595758 -0.472419 -0.067077 -1.002866 4.188154 -2.132230 -6.181575 -0.850275 0.059366 20.629784 -3.422825 5.302158 -5.317385 -8.652111 -0.457266 -58.092369 3.565777 -5.903401 -29.352673 -5.000000 33.138321 -9.650385 -6.521045 9.512701 4.762106 8.817995 -0.467322 60.538734 5.735986 5.621555 25.438951 5.000000 30.827522 14.964002 -9.586772 1.521358 16.905542 5.223496 3.366301 9.575863 -7.892708 -1.718599 -23.961969 8.442935 2.814470 15.286117 -4.705330 -2.498499 7.718833 4.439357 0.766155 -15.459963 -8.870442 4.642983 
-0.111207 52.558475 1.967810 -9.040133 -2.409256 -5.855094 28.634146 -0.476418 -0.185870 -1.006730 4.227131 -2.191432 -5.859245 -0.782685 0.049151 20.929295 -3.570487 4.979885 -5.336679 -8.622850 -0.455757 -58.169102 3.660686 -6.017112 -29.481924 -5.000000 33.328995 -9.734262 -6.570217 9.501639 4.829982 8.759470 -0.464294 60.569099 5.605592 5.438098 25.789497 5.000000 30.508055 14.901958 -9.699648 1.691412 17.052008 5.047244 3.324239 9.645236 -7.900539 -1.736139 -24.273323 8.480014 2.924947 14.722001 -4.920633 -2.557506 9.230120 4.506847 0.896537 -16.114624 -8.876402 4.507223 
-0.023169 52.498718 2.127777 -8.974189 -2.282886 -5.874191 28.701708 -0.559932 -0.391081 -0.997717 4.256418 -2.240260 -5.624862 -0.773029 0.047692 21.177835 -3.668046 4.931760 -5.345973 -8.564336 -0.452738 -58.240490 3.684278 -6.071232 -29.646221 -5.000000 33.409039 -9.836592 -6.535100 9.501399 4.878410 8.710700 -0.461770 60.600533 5.520984 5.296189 26.211649 5.000000 30.065687 14.850546 -9.710120 1.706362 17.116926 4.775724 3.173360 9.748060 -7.899021 -1.718482 -24.630093 8.615674 3.128210 13.792784 -5.281431 -2.760552 11.408117 4.683603 1.128763 -16.752899 -8.816314 4.220798 
0.064870 52.438965 2.287750 -8.898563 -2.156523 -5.892939 28.769751 -0.635094 -0.592520 -0.978939 4.285706 -2.289087 -5.400238 -0.753718 0.044773 21.426540 -3.765616 4.883025 -5.353815 -8.506733 -0.440102 -58.311893 3.707743 -6.126049 -29.810095 -5.000000 33.487999 -9.946425 -6.501767 9.481944 4.925358 8.662770 -0.449628 60.643337 5.431920 5.168329 26.634842 5.000000 29.627510 14.789226 -9.720280 1.722979 17.183111 4.521386 3.036505 9.865594 -7.861149 -1.747931 -25.006611 8.669422 3.268087 12.859802 -5.664206 -2.951003 13.596090 4.868988 1.379620 -17.367647 -8.735196 3.980288 
0.163567 52.360027 2.447978 -8.733167 -2.059419 -5.882817 28.860889 -0.640641 -0.805930 -0.918839 4.227131 -2.289088 -5.370968 -0.626732 0.035458 21.503931 -3.804758 4.844042 -5.451471 -8.506733 -0.440102 -58.302597 3.665996 -6.186247 -30.117966 -5.000000 33.361355 -9.967500 -6.251522 9.397226 4.859359 8.769217 -0.464798 60.486858 5.430264 5.027825 27.179571 5.000000 29.220690 14.937301 -9.689531 1.717923 17.129259 4.266334 2.804163 10.017353 -7.842700 -1.752429 -25.416412 8.708225 3.425934 11.242713 -6.051638 -3.891955 16.965256 5.026178 1.742701 -17.878214 -8.663838 4.053276 
0.262261 52.281090 2.608207 -8.567735 -1.962312 -5.872709 28.961960 -0.631935 -1.002800 -0.858740 4.168556 -2.288379 -5.351465 -0.499747 0.026143 21.581373 -3.843902 4.805714 -5.549203 -8.516483 -0.440606 -58.284134 3.630449 -6.254139 -30.430569 -5.000000 33.226185 -9.988710 -6.014285 9.294503 4.801655 8.876503 -0.470347 60.341198 5.418599 4.893024 27.738480 5.000000 28.803211 15.087257 -9.646873 1.706359 17.063663 4.051956 2.610700 10.191280 -7.841383 -1.790612 -25.808968 8.706290 3.555319 9.621616 -6.489361 -4.847291 20.359146 5.170493 2.126511 -18.352791 -8.558892 4.125435 
0.359485 52.218807 2.776095 -8.379613 -2.166199 -5.902698 29.176458 -0.269458 -1.064248 -0.788173 4.110000 -2.278647 -5.380707 -0.578454 0.028161 21.551266 -3.921412 4.864832 -5.582659 -8.847113 -0.467321 -58.008488 3.550523 -6.282312 -30.724792 -5.000000 33.082302 -9.969849 -5.917837 9.100500 4.782460 9.101622 -0.472336 59.962463 5.463277 4.783103 28.309017 5.000000 28.408091 15.124757 -9.590544 1.675758 17.058432 4.072281 2.416380 10.358143 -7.831907 -1.817356 -26.499748 8.820604 3.645996 7.805820 -6.537984 -6.904694 24.205778 4.847102 2.354061 -18.358955 -8.548802 4.577890 
